<svg width="92" height="18" viewBox="0 0 92 18" fill="none" xmlns="http://www.w3.org/2000/svg">
<path d="M14.0469 6.20312H11.6094C11.5156 5.68229 11.3411 5.22396 11.0859 4.82812C10.8307 4.43229 10.5182 4.09635 10.1484 3.82031C9.77865 3.54427 9.36458 3.33594 8.90625 3.19531C8.45313 3.05469 7.97135 2.98437 7.46094 2.98437C6.53906 2.98437 5.71354 3.21615 4.98438 3.67969C4.26042 4.14323 3.6875 4.82292 3.26563 5.71875C2.84896 6.61458 2.64062 7.70833 2.64062 9C2.64062 10.3021 2.84896 11.401 3.26563 12.2969C3.6875 13.1927 4.26302 13.8698 4.99219 14.3281C5.72135 14.7865 6.54167 15.0156 7.45313 15.0156C7.95833 15.0156 8.4375 14.9479 8.89063 14.8125C9.34896 14.6719 9.76302 14.4661 10.1328 14.1953C10.5026 13.9245 10.8151 13.5937 11.0703 13.2031C11.3307 12.8073 11.5104 12.3542 11.6094 11.8438L14.0469 11.8516C13.9167 12.638 13.6641 13.362 13.2891 14.0234C12.9193 14.6797 12.4427 15.2474 11.8594 15.7266C11.2813 16.2005 10.6198 16.5677 9.875 16.8281C9.13021 17.0885 8.31771 17.2187 7.4375 17.2187C6.05208 17.2187 4.81771 16.8906 3.73438 16.2344C2.65104 15.5729 1.79688 14.6276 1.17188 13.3984C0.552083 12.1693 0.242188 10.7031 0.242188 9C0.242188 7.29167 0.554688 5.82552 1.17969 4.60156C1.80469 3.3724 2.65885 2.42969 3.74219 1.77344C4.82552 1.11198 6.05729 0.781249 7.4375 0.781249C8.28646 0.781249 9.07813 0.903645 9.8125 1.14844C10.5521 1.38802 11.2161 1.74219 11.8047 2.21094C12.3932 2.67448 12.8802 3.24219 13.2656 3.91406C13.651 4.58073 13.9115 5.34375 14.0469 6.20312ZM20.2402 17.2656C19.4798 17.2656 18.7923 17.125 18.1777 16.8437C17.5632 16.5573 17.0762 16.1432 16.7168 15.6016C16.3626 15.0599 16.1855 14.3958 16.1855 13.6094C16.1855 12.9323 16.3158 12.375 16.5762 11.9375C16.8366 11.5 17.1882 11.1536 17.6309 10.8984C18.0736 10.6432 18.5684 10.4505 19.1152 10.3203C19.6621 10.1901 20.2194 10.0911 20.7871 10.0234C21.5059 9.9401 22.0892 9.8724 22.5371 9.82031C22.985 9.76302 23.3105 9.67187 23.5137 9.54688C23.7168 9.42187 23.8184 9.21875 23.8184 8.9375V8.88281C23.8184 8.20052 23.6257 7.67187 23.2402 7.29687C22.86 6.92187 22.2923 6.73437 21.5371 6.73437C20.7507 6.73437 20.1309 6.90885 19.6777 7.25781C19.2298 7.60156 18.9199 7.98437 18.748 8.40625L16.5527 7.90625C16.8132 7.17708 17.1934 6.58854 17.6934 6.14062C18.1986 5.6875 18.7793 5.35937 19.4355 5.15625C20.0918 4.94792 20.7819 4.84375 21.5059 4.84375C21.985 4.84375 22.4928 4.90104 23.0293 5.01563C23.571 5.125 24.0762 5.32812 24.5449 5.625C25.0189 5.92187 25.4069 6.34635 25.709 6.89844C26.0111 7.44531 26.1621 8.15625 26.1621 9.03125V17H23.8809V15.3594H23.7871C23.6361 15.6615 23.4095 15.9583 23.1074 16.25C22.8053 16.5417 22.4173 16.7839 21.9434 16.9766C21.4694 17.1693 20.9017 17.2656 20.2402 17.2656ZM20.748 15.3906C21.3939 15.3906 21.946 15.263 22.4043 15.0078C22.8678 14.7526 23.2194 14.4193 23.459 14.0078C23.7038 13.5911 23.8262 13.1458 23.8262 12.6719V11.125C23.7428 11.2083 23.5814 11.2865 23.3418 11.3594C23.1074 11.4271 22.8392 11.487 22.5371 11.5391C22.235 11.5859 21.9408 11.6302 21.6543 11.6719C21.3678 11.7083 21.1283 11.7396 20.9355 11.7656C20.4824 11.8229 20.0684 11.9193 19.6934 12.0547C19.3236 12.1901 19.0267 12.3854 18.8027 12.6406C18.584 12.8906 18.4746 13.224 18.4746 13.6406C18.4746 14.2187 18.6882 14.6562 19.1152 14.9531C19.5423 15.2448 20.0866 15.3906 20.748 15.3906ZM29.2734 17V5H31.5156V6.95312H31.6641C31.9141 6.29167 32.3229 5.77604 32.8906 5.40625C33.4583 5.03125 34.138 4.84375 34.9297 4.84375C35.7318 4.84375 36.4036 5.03125 36.9453 5.40625C37.4922 5.78125 37.8958 6.29687 38.1563 6.95312H38.2813C38.5677 6.3125 39.0234 5.80208 39.6484 5.42187C40.2734 5.03646 41.0182 4.84375 41.8828 4.84375C42.9714 4.84375 43.8594 5.1849 44.5469 5.86719C45.2396 6.54948 45.5859 7.57812 45.5859 8.95312V17H43.25V9.17187C43.25 8.35937 43.0286 7.77083 42.5859 7.40625C42.1432 7.04167 41.6146 6.85938 41 6.85938C40.2396 6.85938 39.6484 7.09375 39.2266 7.5625C38.8047 8.02604 38.5938 8.6224 38.5938 9.35156V17H36.2656V9.02344C36.2656 8.3724 36.0625 7.84896 35.6563 7.45312C35.25 7.05729 34.7214 6.85938 34.0703 6.85938C33.6276 6.85938 33.2188 6.97656 32.8438 7.21094C32.474 7.4401 32.1745 7.76042 31.9453 8.17188C31.7214 8.58333 31.6094 9.0599 31.6094 9.60156V17H29.2734ZM53.8887 17.2422C52.7064 17.2422 51.6882 16.9896 50.834 16.4844C49.985 15.974 49.3288 15.2578 48.8652 14.3359C48.4069 13.4089 48.1777 12.3229 48.1777 11.0781C48.1777 9.84896 48.4069 8.76562 48.8652 7.82812C49.3288 6.89062 49.9746 6.15885 50.8027 5.63281C51.6361 5.10677 52.61 4.84375 53.7246 4.84375C54.4017 4.84375 55.0579 4.95573 55.6934 5.17969C56.3288 5.40365 56.8991 5.75521 57.4043 6.23437C57.9095 6.71354 58.3079 7.33594 58.5996 8.10156C58.8913 8.86198 59.0371 9.78646 59.0371 10.875V11.7031H49.498V9.95312H56.748C56.748 9.33854 56.623 8.79427 56.373 8.32031C56.123 7.84115 55.7715 7.46354 55.3184 7.1875C54.8704 6.91146 54.3444 6.77344 53.7402 6.77344C53.084 6.77344 52.5111 6.9349 52.0215 7.25781C51.5371 7.57552 51.1621 7.99219 50.8965 8.50781C50.6361 9.01823 50.5059 9.57292 50.5059 10.1719V11.5391C50.5059 12.3411 50.6465 13.0234 50.9277 13.5859C51.2142 14.1484 51.6126 14.5781 52.123 14.875C52.6335 15.1667 53.2298 15.3125 53.9121 15.3125C54.3548 15.3125 54.7585 15.25 55.123 15.125C55.4876 14.9948 55.8027 14.8021 56.0684 14.5469C56.334 14.2917 56.5371 13.9766 56.6777 13.6016L58.8887 14C58.7116 14.651 58.3939 15.2214 57.9355 15.7109C57.4824 16.1953 56.9121 16.5729 56.2246 16.8437C55.5423 17.1094 54.7637 17.2422 53.8887 17.2422ZM61.6289 17V5H63.8867V6.90625H64.0117C64.2305 6.26042 64.6159 5.7526 65.168 5.38281C65.7253 5.00781 66.3555 4.82031 67.0586 4.82031C67.2044 4.82031 67.3763 4.82552 67.5742 4.83594C67.7773 4.84635 67.9362 4.85937 68.0508 4.875V7.10937C67.957 7.08333 67.7904 7.05469 67.5508 7.02344C67.3112 6.98698 67.0716 6.96875 66.832 6.96875C66.2799 6.96875 65.7878 7.08594 65.3555 7.32031C64.9284 7.54948 64.5898 7.86979 64.3398 8.28125C64.0898 8.6875 63.9648 9.15104 63.9648 9.67187V17H61.6289ZM73.457 17.2656C72.6966 17.2656 72.0091 17.125 71.3945 16.8437C70.7799 16.5573 70.293 16.1432 69.9336 15.6016C69.5794 15.0599 69.4023 14.3958 69.4023 13.6094C69.4023 12.9323 69.5326 12.375 69.793 11.9375C70.0534 11.5 70.4049 11.1536 70.8477 10.8984C71.2904 10.6432 71.7852 10.4505 72.332 10.3203C72.8789 10.1901 73.4362 10.0911 74.0039 10.0234C74.7227 9.9401 75.306 9.8724 75.7539 9.82031C76.2018 9.76302 76.5273 9.67187 76.7305 9.54688C76.9336 9.42187 77.0352 9.21875 77.0352 8.9375V8.88281C77.0352 8.20052 76.8424 7.67187 76.457 7.29687C76.0768 6.92187 75.5091 6.73437 74.7539 6.73437C73.9674 6.73437 73.3477 6.90885 72.8945 7.25781C72.4466 7.60156 72.1367 7.98437 71.9648 8.40625L69.7695 7.90625C70.0299 7.17708 70.4102 6.58854 70.9102 6.14062C71.4154 5.6875 71.9961 5.35937 72.6523 5.15625C73.3086 4.94792 73.9987 4.84375 74.7227 4.84375C75.2018 4.84375 75.7096 4.90104 76.2461 5.01563C76.7878 5.125 77.293 5.32812 77.7617 5.625C78.2357 5.92187 78.6237 6.34635 78.9258 6.89844C79.2279 7.44531 79.3789 8.15625 79.3789 9.03125V17H77.0977V15.3594H77.0039C76.8529 15.6615 76.6263 15.9583 76.3242 16.25C76.0221 16.5417 75.6341 16.7839 75.1602 16.9766C74.6862 17.1693 74.1185 17.2656 73.457 17.2656ZM73.9648 15.3906C74.6107 15.3906 75.1628 15.263 75.6211 15.0078C76.0846 14.7526 76.4362 14.4193 76.6758 14.0078C76.9206 13.5911 77.043 13.1458 77.043 12.6719V11.125C76.9596 11.2083 76.7982 11.2865 76.5586 11.3594C76.3242 11.4271 76.056 11.487 75.7539 11.5391C75.4518 11.5859 75.1576 11.6302 74.8711 11.6719C74.5846 11.7083 74.3451 11.7396 74.1523 11.7656C73.6992 11.8229 73.2852 11.9193 72.9102 12.0547C72.5404 12.1901 72.2435 12.3854 72.0195 12.6406C71.8008 12.8906 71.6914 13.224 71.6914 13.6406C71.6914 14.2187 71.9049 14.6562 72.332 14.9531C72.7591 15.2448 73.3034 15.3906 73.9648 15.3906ZM91.4824 7.92969L89.3652 8.30469C89.2767 8.03385 89.1361 7.77604 88.9434 7.53125C88.7559 7.28646 88.5007 7.08594 88.1777 6.92969C87.8548 6.77344 87.4512 6.69531 86.9668 6.69531C86.3053 6.69531 85.7533 6.84375 85.3105 7.14062C84.8678 7.43229 84.6465 7.8099 84.6465 8.27344C84.6465 8.67448 84.7949 8.9974 85.0918 9.24219C85.3887 9.48698 85.8678 9.6875 86.5293 9.84375L88.4355 10.2812C89.5397 10.5365 90.3626 10.9297 90.9043 11.4609C91.446 11.9922 91.7168 12.6823 91.7168 13.5313C91.7168 14.25 91.5085 14.8906 91.0918 15.4531C90.6803 16.0104 90.1048 16.4479 89.3652 16.7656C88.6309 17.0833 87.7793 17.2422 86.8105 17.2422C85.4668 17.2422 84.3704 16.9557 83.5215 16.3828C82.6725 15.8047 82.1517 14.9844 81.959 13.9219L84.2168 13.5781C84.3574 14.1667 84.6465 14.612 85.084 14.9141C85.5215 15.2109 86.0918 15.3594 86.7949 15.3594C87.5605 15.3594 88.1725 15.2005 88.6309 14.8828C89.0892 14.5599 89.3184 14.1667 89.3184 13.7031C89.3184 13.3281 89.1777 13.013 88.8965 12.7578C88.6204 12.5026 88.196 12.3099 87.623 12.1797L85.5918 11.7344C84.472 11.4792 83.6439 11.0729 83.1074 10.5156C82.5762 9.95833 82.3105 9.2526 82.3105 8.39844C82.3105 7.6901 82.5085 7.07031 82.9043 6.53906C83.3001 6.00781 83.847 5.59375 84.5449 5.29687C85.2428 4.99479 86.0423 4.84375 86.9434 4.84375C88.2402 4.84375 89.2611 5.125 90.0059 5.6875C90.7507 6.24479 91.2428 6.99219 91.4824 7.92969Z" fill="#212121"/>
</svg>
